<svg xmlns="http://www.w3.org/2000/svg" xmlns:xlink="http://www.w3.org/1999/xlink" width="60" height="100"><defs><linearGradient id="a"><stop offset="0"/><stop offset="1" stop-opacity="0"/></linearGradient><linearGradient id="b" x1="22" x2="22" y1="20.979" y2="93.052" gradientUnits="userSpaceOnUse" xlink:href="#a"/><filter id="c" width="1.3" height="1.3" x="-.15" y="-.15" color-interpolation-filters="sRGB"><feTurbulence baseFrequency=".135" numOctaves="3" result="result0" seed="520" type="fractalNoise"/><feDisplacementMap in="SourceGraphic" in2="result0" result="result2" scale="3" xChannelSelector="R" yChannelSelector="G"/><feBlend in="result2" in2="result2" mode="multiply" result="result5"/><feGaussianBlur in="result2" result="result4" stdDeviation="6"/><feComposite in="result0" in2="result4" k1="2" k3="1.2" operator="arithmetic" result="result6"/><feComposite in="result6" in2="result5" operator="in" result="result7"/></filter><linearGradient id="d" x1="24.934" x2="15.168" y1="25.475" y2="88.943" gradientUnits="userSpaceOnUse" xlink:href="#a"/></defs><path fill="url(#b)" d="M13 5c6.022-1.439 10.103.87 10 6.24-.103 5.369-.602 26.637-4 27.27-8 11.688-3 122.72-10 149.99C8 161.23-7 19.031 13 5z" filter="url(#c)" transform="matrix(1 0 0 .51337 0 2.23)"/><path fill="url(#d)" d="M8.842 6.992c6.022-1.44 16.49.54 13.384 23.119-3.106 22.578-4.192 7.895-7.936 20.058C14.41 64.348 16 161.229 9 188.5 8 161.23-11.158 21.023 8.842 6.992z" filter="url(#c)" transform="matrix(-.96593 .25882 -.13287 -.49588 62.47 96.179)"/></svg>